<svg width="128" height="128" viewBox="0 0 128 128" fill="none" xmlns="http://www.w3.org/2000/svg">
<path d="M102.166 56.0107C109.184 56.0107 115.544 53.1794 120.178 48.5911C118.834 61.7528 109.617 72.5694 97.3385 76.2025C92.0948 67.6058 82.6288 61.8665 71.8223 61.8665C71.2307 61.8665 70.6432 61.8837 70.0601 61.9177C66.75 57.8388 62.2751 54.7435 57.1419 53.1382C56.5122 50.617 56.1779 47.9781 56.1779 45.2606C56.1779 29.3916 67.5804 16.1995 82.5992 13.511C78.7939 18.0114 76.498 23.8414 76.498 30.2104C76.498 44.4595 87.9898 56.0107 102.166 56.0107Z" fill="#1666FF"/>
<path d="M7.82227 114.489L16.0036 106.307C14.4224 103.719 13.5112 100.677 13.5112 97.422C13.5112 88.4569 20.4236 81.1063 29.2095 80.4094C29.1738 79.9219 29.1556 79.4296 29.1556 78.9331C29.1556 67.9365 38.0701 59.022 49.0667 59.022C56.6784 59.022 63.2926 63.2931 66.6432 69.5695C68.3069 69.1823 70.0407 68.9775 71.8223 68.9775C84.3898 68.9775 94.5778 79.1655 94.5778 91.7331C94.5778 103.823 85.1495 113.711 73.2445 114.445V114.489H7.82227Z" fill="#1666FF"/>
</svg>
