<svg width="128" height="128" viewBox="0 0 128 128" fill="none" xmlns="http://www.w3.org/2000/svg">
<rect width="128" height="128" rx="32" fill="url(#paint0_linear_74_419)"/>
<path d="M92.6243 58.0081C97.8879 58.0081 102.658 55.8846 106.133 52.4434C105.126 62.3147 98.2127 70.4271 89.0039 73.1519C85.0711 66.7044 77.9716 62.4 69.8668 62.4C69.4231 62.4 68.9824 62.4129 68.5451 62.4383C66.0625 59.3791 62.7064 57.0577 58.8564 55.8537C58.3842 53.9628 58.1334 51.9836 58.1334 49.9455C58.1334 38.0437 66.6853 28.1497 77.9494 26.1333C75.0955 29.5086 73.3736 33.8811 73.3736 38.6578C73.3736 49.3447 81.9924 58.0081 92.6243 58.0081Z" fill="white"/>
<path d="M21.8667 101.867L28.0027 95.7306C26.8168 93.7895 26.1334 91.5078 26.1334 89.0666C26.1334 82.3428 31.3177 76.8299 37.9071 76.3071C37.8803 75.9416 37.8667 75.5723 37.8667 75.1999C37.8667 66.9525 44.5526 60.2666 52.8 60.2666C58.5088 60.2666 63.4694 63.47 65.9824 68.1773C67.2302 67.8868 68.5305 67.7333 69.8667 67.7333C79.2924 67.7333 86.9334 75.3743 86.9334 84.7999C86.9334 93.8674 79.8621 101.283 70.9334 101.834V101.867H21.8667Z" fill="white"/>
<defs>
<linearGradient id="paint0_linear_74_419" x1="64" y1="0" x2="64" y2="128" gradientUnits="userSpaceOnUse">
<stop stop-color="#003EDB"/>
<stop offset="1" stop-color="#348CFF"/>
</linearGradient>
</defs>
</svg>
