<svg width="346" height="128" viewBox="0 0 346 128" fill="none" xmlns="http://www.w3.org/2000/svg">
<rect width="346" height="128" rx="32" fill="url(#paint0_linear_77_464)"/>
<path d="M92.0918 58.0081C97.3252 58.0081 102.068 55.8846 105.523 52.4434C104.522 62.3147 97.6481 70.4271 88.4922 73.1519C84.5821 66.7044 77.5234 62.4 69.4651 62.4C69.024 62.4 68.5858 62.4129 68.151 62.4383C65.6827 59.3791 62.3458 57.0577 58.518 55.8537C58.0485 53.9628 57.7992 51.9836 57.7992 49.9455C57.7992 38.0437 66.302 28.1497 77.5013 26.1333C74.6638 29.5086 72.9518 33.8811 72.9518 38.6578C72.9518 49.3447 81.5211 58.0081 92.0918 58.0081Z" fill="white"/>
<path d="M21.741 101.867L27.8417 95.7306C26.6626 93.7895 25.9831 91.5078 25.9831 89.0666C25.9831 82.3428 31.1377 76.8299 37.6892 76.3071C37.6626 75.9416 37.649 75.5723 37.649 75.1999C37.649 66.9525 44.2965 60.2666 52.4965 60.2666C58.1725 60.2666 63.1046 63.47 65.6031 68.1773C66.8437 67.8868 68.1366 67.7333 69.4651 67.7333C78.8366 67.7333 86.4337 75.3743 86.4337 84.7999C86.4337 93.8674 79.4031 101.283 70.5256 101.834V101.867H21.741Z" fill="white"/>
<path d="M128.25 84V44.8H136.258L153.842 70.84V44.8H161.85V84H153.842L136.258 58.016V84H128.25ZM171.936 53.2C170.592 53.2 169.416 52.7147 168.408 51.744C167.437 50.736 166.952 49.56 166.952 48.216C166.952 46.8347 167.437 45.6587 168.408 44.688C169.416 43.7173 170.592 43.232 171.936 43.232C173.354 43.232 174.53 43.7173 175.464 44.688C176.434 45.6587 176.92 46.8347 176.92 48.216C176.92 49.56 176.434 50.736 175.464 51.744C174.53 52.7147 173.354 53.2 171.936 53.2ZM168.016 84V56.224H175.912V84H168.016ZM181.324 84V56.224H189.22V59.36C190.154 58.0907 191.33 57.1387 192.748 56.504C194.167 55.8693 195.679 55.552 197.285 55.552C199.189 55.552 201.018 55.9813 202.772 56.84C204.564 57.6987 205.965 59.0427 206.973 60.872C207.869 59.304 209.119 58.0347 210.725 57.064C212.367 56.056 214.196 55.552 216.213 55.552C218.415 55.552 220.357 56 222.037 56.896C223.754 57.7547 225.098 59.08 226.069 60.872C227.039 62.664 227.525 64.8853 227.525 67.536V84H219.685V68.6C219.685 66.6587 219.218 65.1467 218.285 64.064C217.351 62.944 215.933 62.384 214.029 62.384C212.162 62.384 210.743 62.944 209.772 64.064C208.839 65.184 208.373 66.696 208.373 68.6V84H200.533V68.6C200.533 66.696 200.047 65.184 199.076 64.064C198.143 62.944 196.743 62.384 194.876 62.384C193.196 62.384 191.834 62.9067 190.788 63.952C189.743 64.96 189.22 66.5093 189.22 68.6V84H181.324ZM249.342 84.672C247.513 84.672 245.796 84.3173 244.19 83.608C242.622 82.8613 241.334 81.7413 240.326 80.248V84H232.374V44.8H240.27V60.032C241.241 58.5387 242.529 57.4187 244.134 56.672C245.777 55.9253 247.513 55.552 249.342 55.552C251.881 55.552 254.102 56.1867 256.006 57.456C257.91 58.7253 259.385 60.4613 260.43 62.664C261.476 64.8293 261.998 67.2747 261.998 70C261.998 72.688 261.476 75.152 260.43 77.392C259.422 79.5947 257.966 81.368 256.062 82.712C254.196 84.0187 251.956 84.672 249.342 84.672ZM247.102 77.728C248.446 77.728 249.622 77.392 250.63 76.72C251.676 76.048 252.478 75.1333 253.038 73.976C253.636 72.7813 253.934 71.456 253.934 70C253.934 68.3573 253.617 66.976 252.982 65.856C252.348 64.736 251.508 63.896 250.462 63.336C249.454 62.7387 248.334 62.44 247.102 62.44C245.796 62.44 244.62 62.7573 243.574 63.392C242.566 64.0267 241.764 64.9227 241.166 66.08C240.569 67.2373 240.27 68.5813 240.27 70.112C240.27 71.6053 240.569 72.9307 241.166 74.088C241.764 75.2453 242.566 76.1413 243.574 76.776C244.62 77.4107 245.796 77.728 247.102 77.728ZM277.055 84.672C274.703 84.672 272.705 84.168 271.063 83.16C269.457 82.1147 268.225 80.696 267.367 78.904C266.508 77.0747 266.079 75.0027 266.079 72.688V56.224H273.919V71.624C273.919 73.4907 274.404 75.0213 275.375 76.216C276.345 77.4107 277.764 78.008 279.631 78.008C281.572 78.008 283.009 77.4293 283.943 76.272C284.913 75.0773 285.399 73.528 285.399 71.624V56.224H293.295V84H285.399V80.64C284.428 81.9467 283.215 82.9547 281.759 83.664C280.303 84.336 278.735 84.672 277.055 84.672ZM310.416 84.672C308.363 84.672 306.384 84.2987 304.48 83.552C302.576 82.8053 301.008 81.7227 299.776 80.304C298.544 78.848 297.853 77.112 297.704 75.096H305.6C305.749 76.216 306.272 77.0933 307.168 77.728C308.101 78.3627 309.147 78.68 310.304 78.68C311.275 78.68 312.152 78.4747 312.936 78.064C313.757 77.6533 314.168 76.9813 314.168 76.048C314.168 75.3387 313.832 74.7787 313.16 74.368C312.525 73.92 311.779 73.584 310.92 73.36C310.061 73.0987 309.277 72.8933 308.568 72.744C306.776 72.296 305.115 71.7733 303.584 71.176C302.053 70.5787 300.821 69.7387 299.888 68.656C298.955 67.5733 298.488 66.08 298.488 64.176C298.488 62.3093 299.011 60.7413 300.056 59.472C301.101 58.1653 302.483 57.1947 304.2 56.56C305.917 55.888 307.803 55.552 309.856 55.552C313.029 55.552 315.68 56.3547 317.808 57.96C319.973 59.528 321.187 61.88 321.448 65.016H314.056C313.907 63.8587 313.421 63 312.6 62.44C311.816 61.88 310.808 61.6 309.576 61.6C308.643 61.6 307.803 61.768 307.056 62.104C306.347 62.44 305.992 63.0747 305.992 64.008C305.992 64.7173 306.309 65.296 306.944 65.744C307.616 66.1547 308.381 66.4907 309.24 66.752C310.136 66.976 310.92 67.1813 311.592 67.368C313.459 67.816 315.139 68.3573 316.632 68.992C318.125 69.5893 319.32 70.448 320.216 71.568C321.149 72.6507 321.635 74.1627 321.672 76.104C321.672 77.9333 321.149 79.4827 320.104 80.752C319.059 82.0213 317.677 82.992 315.96 83.664C314.28 84.336 312.432 84.672 310.416 84.672Z" fill="white"/>
<defs>
<linearGradient id="paint0_linear_77_464" x1="173" y1="0" x2="173" y2="128" gradientUnits="userSpaceOnUse">
<stop stop-color="#003EDB"/>
<stop offset="1" stop-color="#348CFF"/>
</linearGradient>
</defs>
</svg>
